Coordinates
version=1
nRows=14
nColumns=24
inDegrees=yes

Units are S.I. units (second, meters, Newtons, ...)
Angles are in degrees.

endheader
time	pelvis_tilt	pelvis_list	pelvis_rotation	pelvis_tx	pelvis_ty	pelvis_tz	hip_flexion_r	hip_adduction_r	hip_rotation_r	knee_angle_r	ankle_angle_r	subtalar_angle_r	mtp_angle_r	hip_flexion_l	hip_adduction_l	hip_rotation_l	knee_angle_l	ankle_angle_l	subtalar_angle_l	mtp_angle_l	lumbar_extension	lumbar_bending	lumbar_rotation
      3.44500000	    -10.93208845	     -2.57482953	     -4.64585399	     -1.40592173	     -0.01285899	     -0.25647997	      6.23037270	      6.36032840	      0.01289603	     -9.25462313	      5.06228813	     -8.51394805	      9.79478327	     36.47996940	     -7.40229149	     -9.21651872	    -50.45339814	     -6.32959474	    -11.21447285	     18.17614084	      6.03929433	      3.64853664	      2.37224031
      3.45000000	    -10.92406340	     -2.48608462	     -4.84071005	     -1.39897468	     -0.01343954	     -0.25628959	      5.62158458	      6.26394307	      0.07691434	     -8.95591436	      5.27533564	     -8.44052173	      9.84655464	     36.80251114	     -7.38400476	     -9.31213161	    -49.07831916	     -6.18245296	    -10.74099553	     18.47938198	      5.99778911	      3.55338037	      2.64230123
      3.45500000	    -10.94228076	     -2.40382682	     -5.03487827	     -1.39203784	     -0.01409826	     -0.25610830	      5.05197383	      6.17359443	      0.14475637	     -8.67768991	      5.48737252	     -8.35421754	      9.90339316	     37.13030755	     -7.38197880	     -9.40603080	    -47.66389090	     -6.03426232	    -10.20191766	     18.72660124	      5.98504648	      3.46455794	      2.87945250
      3.46000000	    -11.00739045	     -2.31782034	     -5.19254610	     -1.38510447	     -0.01484078	     -0.25597595	      4.54697358	      6.07949536	      0.17399804	     -8.42158539	      5.68046035	     -8.30080262	      9.94413901	     37.49195285	     -7.36091810	     -9.47063172	    -46.20505141	     -5.93544085	     -9.64464553	     18.86394759	      6.02560810	      3.36744951	      3.05885896
      3.46500000	    -11.05450661	     -2.23021384	     -5.37186191	     -1.37820476	     -0.01560611	     -0.25586550	      4.04037707	      5.98211416	      0.17112208	     -8.19011612	      5.87761130	     -8.23573961	      9.98636237	     37.79452926	     -7.35477186	     -9.55714383	    -44.69678649	     -5.80392059	     -9.03740083	     18.98852829	      6.03908474	      3.28323611	      3.28439409
      3.47000000	    -11.03648062	     -2.15135979	     -5.57766669	     -1.37132757	     -0.01635518	     -0.25572489	      3.46663001	      5.88965903	      0.14587786	     -7.96297577	      6.10737213	     -8.12143204	     10.04476354	     37.98716802	     -7.38381789	     -9.69156012	    -43.15041595	     -5.64999806	     -8.41101318	     19.12134985	      5.97319330	      3.20453283	      3.58125413
      3.47500000	    -11.06086506	     -2.05951311	     -5.75391548	     -1.36447531	     -0.01715526	     -0.25559951	      2.96120560	      5.78867717	      0.05347362	     -7.76788697	      6.31171817	     -8.02792625	     10.08987329	     38.20119311	     -7.38689759	     -9.80022561	    -41.55723974	     -5.57733708	     -7.81203103	     19.16846527	      5.95398499	      3.09986468	      3.81875220
      3.48000000	    -11.16280406	     -1.97215568	     -5.88911141	     -1.35763299	     -0.01807958	     -0.25550664	      2.55132162	      5.70342288	     -0.07616530	     -7.59229003	      6.49157801	     -8.00573124	     10.11143951	     38.48755299	     -7.38099022	     -9.87477766	    -39.94408954	     -5.56893522	     -7.24588603	     19.14580969	      6.01961850	      2.99920181	      3.98110409
      3.48500000	    -11.16218026	     -1.87515788	     -6.07644102	     -1.35076709	     -0.01890501	     -0.25537607	      2.02310008	      5.59277575	     -0.22058931	     -7.40520602	      6.73132790	     -7.81574117	     10.15424265	     38.60951797	     -7.40993901	    -10.05751898	    -38.30764034	     -5.51122077	     -6.63334830	     19.04885450	      5.97771447	      2.89160792	      4.26478810
      3.49000000	    -11.19863140	     -1.77138423	     -6.22781712	     -1.34393575	     -0.01978030	     -0.25526653	      1.55902689	      5.48304577	     -0.43705306	     -7.25307401	      6.93670547	     -7.68532592	     10.17250597	     38.75229969	     -7.41008502	    -10.19929884	    -36.64929719	     -5.53277273	     -6.11017351	     18.84569189	      5.97230675	      2.76493464	      4.48082893
      3.49500000	    -11.17458905	     -1.65841137	     -6.40079363	     -1.33715153	     -0.02059097	     -0.25518476	      1.06082638	      5.35362249	     -0.73623918	     -7.14846563	      7.17071347	     -7.47606390	     10.18177960	     38.79242548	     -7.40880118	    -10.38141021	    -34.98066359	     -5.53444681	     -5.64544011	     18.43848252	      5.88747765	      2.63369817	      4.75171572
      3.50000000	    -11.18554045	     -1.54084129	     -6.54221414	     -1.33031288	     -0.02145856	     -0.25511534	      0.59215928	      5.22270403	     -1.04410306	     -7.03283349	      7.38484815	     -7.29023968	     10.16551163	     38.85912682	     -7.39403688	    -10.55657628	    -33.33671967	     -5.56525112	     -5.22352963	     17.87014127	      5.85564199	      2.48916704	      4.96990736
      3.50500000	    -11.17756639	     -1.45112766	     -6.60362919	     -1.32341003	     -0.02233878	     -0.25514445	      0.09292897	      5.11613199	     -1.50834311	     -6.90659647	      7.58866426	     -7.05563318	     10.06576737	     38.91849823	     -7.35620520	    -10.68520411	    -31.77933385	     -5.45336986	     -4.77462578	     16.54767800	      5.80874767	      2.35833921	      5.07539378
      3.51000000	    -11.31708220	     -1.35116506	     -6.76579271	     -1.31657720	     -0.02337718	     -0.25503360	     -0.21632074	      5.02736435	     -1.67935361	     -6.82974905	      7.69164055	     -7.07770604	     10.05016229	     39.10321334	     -7.39385457	    -10.84775717	    -30.20641257	     -5.59908496	     -4.50730669	     16.29312366	      5.90805958	      2.24835766	      5.31247798
